FFmpeg version SVN-r25716, Copyright (c) 2000-2010 the FFmpeg developers  built on Nov 10 2010 12:23:18 with gcc 4.1.2 20080704 (Red Hat 4.1.2-48)  configuration: --enable-libmp3lame --enable-shared --disable-mmx --arch=x86_64  libavutil     50.33. 0 / 50.33. 0  libavcore      0.12. 1 /  0.12. 1  libavcodec    52.94. 4 / 52.94. 4  libavformat   52.84. 0 / 52.84. 0  libavdevice   52. 2. 2 / 52. 2. 2  libavfilter    1.59. 0 /  1.59. 0  libswscale     0.12. 0 /  0.12. 0[mov,mp4,m4a,3gp,3g2,mj2 @ 0x1fbde4c0] max_analyze_duration reachedInput #0, mov,mp4,m4a,3gp,3g2,mj2, from '/RAID10/data/converted_video_files/11806.mov':  Duration: 00:00:08.50, bitrate: 6344 kb/s    Stream #0.0(eng): Video: svq1, yuv410p, 934x410, 6343 kb/s, 5.65 fps, 30 tbr, 30 tbn, 30 tbc[buffer @ 0x1fbe3760] w:934 h:410 pixfmt:yuv410p[ffsink @ 0x1fbe39d0] auto-inserting filter 'auto-inserted scaler 0' between the filter 'src' and the filter 'out'[scale @ 0x1fbe3cf0] w:934 h:410 fmt:yuv410p -> w:934 h:410 fmt:yuv420p flags:0x4Output #0, flv, to '/RAID10/data/converted_video_files/11806.flv':  Metadata:    encoder         : Lavf52.84.0    Stream #0.0(eng): Video: flv, yuv420p, 934x410, q=2-31, 600 kb/s, 1k tbn, 24 tbcStream mapping:  Stream #0.0 -> #0.0Press [q] to stop encodingframe=   26 fps=  0 q=31.0 size=     997kB time=4.71 bitrate=1734.0kbits/s    frame=   48 fps=  0 q=31.0 Lsize=    1091kB time=8.38 bitrate=1067.2kbits/s    video:1090kB audio:0kB global headers:0kB muxing overhead 0.087612%